<svg width="40" height="40" viewBox="0 0 40 40" fill="none" xmlns="http://www.w3.org/2000/svg">
    <path d="M31.8099 15.7757H31.7537C30.9866 15.7714 30.2454 16.0533 29.6747 16.5662C29.2127 15.2878 28.0388 14.3689 26.6638 14.3689C25.8211 14.3748 25.0161 14.7207 24.4323 15.3289C23.8954 14.242 22.8184 13.5048 21.5801 13.5048H21.5203C20.8566 13.4946 20.209 13.7104 19.684 14.1165V6.36825C19.684 4.49583 18.2262 2.97266 16.453 2.97266C14.6818 2.97266 13.2316 4.49484 13.2306 6.36595L13.2158 21.739L12.3458 20.6823C11.5829 19.7325 10.4599 19.1427 9.24488 19.0537C8.05486 18.9722 6.88423 19.3862 6.01028 20.1984L5.25329 20.8256C5.00918 21.028 4.93952 21.373 5.08573 21.6542L12.4457 35.8014C13.7914 38.3868 16.3518 39.9996 19.1278 39.9996H27.4221V39.9924C31.6276 39.9924 35.0373 36.3432 35.0416 31.8623C35.0432 29.8575 35.0357 28.3632 35.037 27.1522C35.0412 23.912 35.038 22.7164 35.0297 19.1467C35.0255 17.2785 33.5782 15.7757 31.8099 15.7757ZM33.6814 27.1476C33.68 28.359 33.6781 29.8592 33.6761 31.864C33.6725 35.6039 30.8492 38.6535 27.3827 38.6535H19.1281C16.8558 38.6535 14.7528 37.318 13.6399 35.1797L6.53038 21.5182L6.88127 21.2254C6.89014 21.2182 6.89869 21.2097 6.90723 21.2021C7.51078 20.634 8.32296 20.3423 9.14993 20.3965C9.9953 20.4612 10.7753 20.8745 11.3039 21.5372L13.3636 24.0434C13.5437 24.2632 13.8427 24.3457 14.1101 24.2501C14.3775 24.1545 14.5563 23.9008 14.5563 23.617L14.5684 6.36661C14.5691 5.23705 15.4233 4.31808 16.4537 4.31808C17.484 4.31808 18.3383 5.23803 18.3383 6.36825V16.7693C18.3383 16.8054 18.3366 16.8419 18.3366 16.8787C18.3366 16.8944 18.3383 16.9105 18.3383 16.926V21.373C18.3383 21.7445 18.6395 22.0458 19.0111 22.0458C19.3827 22.0458 19.684 21.7445 19.684 21.373V16.7919C19.684 15.7021 20.5166 14.8505 21.5203 14.8505H21.5801C22.6111 14.8505 23.4689 15.7491 23.4689 16.8793V20.9485C23.4689 21.3201 23.7702 21.6213 24.1418 21.6213C24.5134 21.6213 24.8147 21.3201 24.8147 20.9485V17.7559C24.8147 16.6254 25.6315 15.7057 26.6681 15.7057C27.6987 15.7057 28.5155 16.625 28.5155 17.7559V20.7678C28.5155 21.1394 28.8168 21.4406 29.1884 21.4406C29.56 21.4406 29.8613 21.1394 29.8613 20.7678V19.1368C29.8613 18.0063 30.7227 17.1215 31.7537 17.1215H31.8099C32.8383 17.1215 33.6764 18.0214 33.6791 19.1483C33.6873 22.7154 33.6856 23.9097 33.6814 27.1476Z" fill="white" fill-opacity="0.3"/>
    <path d="M11.0938 6.65912C11.4654 6.65912 11.7667 6.35783 11.7667 5.98624C11.7775 3.4186 13.8622 1.34313 16.4295 1.34313C18.9971 1.34313 21.0815 3.4186 21.0923 5.98624C21.0923 6.35783 21.3936 6.65912 21.7652 6.65912C22.1368 6.65912 22.4381 6.35783 22.4381 5.98624C22.4256 2.67639 19.7393 0 16.4295 0C13.12 0 10.4334 2.67639 10.4209 5.98624C10.4209 6.35783 10.7222 6.65912 11.0938 6.65912Z" fill="white" fill-opacity="0.3"/>
</svg>